<svg xmlns="http://www.w3.org/2000/svg" width="300" height="300" viewBox="0 0 300 300">
  <defs>
    <linearGradient id="bg" x1="0" y1="0" x2="1" y2="1">
      <stop offset="0%" stop-color="#0f172a"/>
      <stop offset="100%" stop-color="#1e293b"/>
    </linearGradient>
    <linearGradient id="chip" x1="0" y1="0" x2="1" y2="1">
      <stop offset="0%" stop-color="#0ea5e9"/>
      <stop offset="100%" stop-color="#22c55e"/>
    </linearGradient>
  </defs>
  <rect x="0" y="0" width="300" height="300" rx="40" fill="url(#bg)"/>
  <g fill="none" stroke="#0ea5e9" stroke-width="6" opacity="0.8">
    <path d="M40 110 H90"/>
    <path d="M40 150 H80"/>
    <path d="M40 190 H100"/>
    <path d="M210 110 H260"/>
    <path d="M220 150 H260"/>
    <path d="M200 190 H260"/>
    <circle cx="40" cy="110" r="6" fill="#22c55e"/>
    <circle cx="260" cy="190" r="6" fill="#22c55e"/>
  </g>
  <g>
    <rect x="70" y="90" width="160" height="120" rx="26" fill="#0b2447"/>
    <rect x="80" y="100" width="140" height="100" rx="22" fill="#0f3b68"/>
    <rect x="88" y="108" width="124" height="84" rx="18" fill="#123b7a"/>
    <text x="150" y="165" font-size="64" font-weight="800" text-anchor="middle" fill="white" font-family="Segoe UI, Arial">YAT</text>
  </g>
  <g stroke="url(#chip)" stroke-width="4" fill="none">
    <path d="M150 40 V80"/>
    <circle cx="150" cy="40" r="6" fill="#22c55e"/>
    <path d="M150 220 V260"/>
    <circle cx="150" cy="260" r="6" fill="#22c55e"/>
  </g>
</svg>
